<svg width="18" height="20" viewBox="0 0 18 20" fill="none" xmlns="http://www.w3.org/2000/svg">
<path d="M5.69773 1.49051C5.89862 1.08501 6.31157 0.832031 6.76172 0.832031H11.2409C11.691 0.832031 12.104 1.08501 12.3049 1.49051L12.5727 2.02251H16.1442C16.8026 2.02251 17.3346 2.5545 17.3346 3.21298C17.3346 3.87147 16.8026 4.40346 16.1442 4.40346H1.85844C1.19996 4.40346 0.667969 3.87147 0.667969 3.21298C0.667969 2.5545 1.19996 2.02251 1.85844 2.02251H5.42987L5.69773 1.49051ZM1.85844 5.59394H16.1442V17.4987C16.1442 18.8119 15.0765 19.8797 13.7632 19.8797H4.2394C2.92615 19.8797 1.85844 18.8119 1.85844 17.4987V5.59394ZM5.42987 7.97489C5.10249 7.97489 4.83464 8.24275 4.83464 8.57013V16.9035C4.83464 17.2308 5.10249 17.4987 5.42987 17.4987C5.75725 17.4987 6.02511 17.2308 6.02511 16.9035V8.57013C6.02511 8.24275 5.75725 7.97489 5.42987 7.97489ZM9.0013 7.97489C8.67392 7.97489 8.40606 8.24275 8.40606 8.57013V16.9035C8.40606 17.2308 8.67392 17.4987 9.0013 17.4987C9.32868 17.4987 9.59654 17.2308 9.59654 16.9035V8.57013C9.59654 8.24275 9.32868 7.97489 9.0013 7.97489ZM12.5727 7.97489C12.2453 7.97489 11.9775 8.24275 11.9775 8.57013V16.9035C11.9775 17.2308 12.2453 17.4987 12.5727 17.4987C12.9001 17.4987 13.168 17.2308 13.168 16.9035V8.57013C13.168 8.24275 12.9001 7.97489 12.5727 7.97489Z" fill="#6C757D"/>
</svg>
