<svg width="20" height="20" viewBox="0 0 20 20" fill="none" xmlns="http://www.w3.org/2000/svg">
<g clipPath="url(#clip0_2363_22838)">
<path d="M16.027 9.02539L16.4684 8.58398L15.1442 7.25977L12.7184 4.83398L11.3942 3.50977L10.9528 3.95117L10.07 4.83398L2.28872 12.6152C1.88247 13.0215 1.58559 13.5254 1.42153 14.0762L0.0387177 18.7793C-0.0589386 19.1074 0.0309051 19.4629 0.276999 19.7051C0.523093 19.9473 0.874655 20.0371 1.20278 19.9434L5.902 18.5605C6.45278 18.3965 6.95669 18.0996 7.36294 17.6934L15.1442 9.91211L16.027 9.02539ZM6.24966 15.6035L5.89419 16.4902C5.73794 16.6113 5.56216 16.7012 5.37466 16.7598L2.31997 17.6582L3.21841 14.6074C3.27309 14.416 3.36684 14.2402 3.48794 14.0879L4.37466 13.7324V14.9824C4.37466 15.3262 4.65591 15.6074 4.99966 15.6074H6.24966V15.6035ZM14.1676 0.732422L13.6051 1.29883L12.7223 2.18164L12.277 2.62305L13.6012 3.94727L16.027 6.37305L17.3512 7.69727L17.7926 7.25586L18.6754 6.37305L19.2418 5.80664C20.2184 4.83008 20.2184 3.24805 19.2418 2.27148L17.7067 0.732422C16.7301 -0.244141 15.1481 -0.244141 14.1715 0.732422H14.1676ZM12.3161 7.29492L6.69106 12.9199C6.44887 13.1621 6.05044 13.1621 5.80825 12.9199C5.56606 12.6777 5.56606 12.2793 5.80825 12.0371L11.4333 6.41211C11.6754 6.16992 12.0739 6.16992 12.3161 6.41211C12.5582 6.6543 12.5582 7.05273 12.3161 7.29492Z" fill="#6C757D"/>
</g>
<defs>
<clipPath id="clip0_2363_22838">
<rect width="20" height="20" fill="white"/>
</clipPath>
</defs>
</svg>
